<svg width="60" height="60" fill="none" xmlns="http://www.w3.org/2000/svg"><path d="M54.05 5.95A20.29 20.29 0 0039.65 0a20.29 20.29 0 00-14.38 5.95 20.28 20.28 0 00-5.83 12.14l-.1 1.26c-.03.32-.03.67-.03 1V40.71h17.61c.03-.36.03-.68.03-1.03v-2.74H23.08V20.38c0-.36 0-.68.03-1.03.03-.42.07-.84.13-1.26a16.74 16.74 0 014.7-9.46 16.6 16.6 0 0123.43 23.43 16.5 16.5 0 01-8.2 4.47v3.87c4.08-.71 7.88-2.67 10.88-5.67A20.23 20.23 0 0060 20.34c0-5.44-2.12-10.55-5.95-14.39z" fill="#F7654A"/><path d="M23.08 23.08h13.87v16.61c0 .35 0 .67-.03 1.03a17.12 17.12 0 01-.35 2.51 16.55 16.55 0 01-16.2 13.07A16.6 16.6 0 018.67 28a16.5 16.5 0 018.2-4.47v-3.12-.74c-4.08.7-7.88 2.67-10.87 5.66A19.88 19.88 0 000 39.66 20.29 20.29 0 0020.34 60a20.29 20.29 0 0020.31-19.35c0-.16 0-.32.04-.48v-.26V19.31H23.08c-.03.36-.03.68-.03 1.03l.03 2.74z" fill="#F7654A"/></svg>