<svg width="18" height="15" fill="none" xmlns="http://www.w3.org/2000/svg"><path d="M18 4.7c-.3.33-.64.63-1 .88a192.5 192.5 0 00-5 3.46c-.85.63-1.9 1.39-2.99 1.39h-.02c-1.1 0-2.14-.76-2.98-1.39-1.64-1.2-3.33-2.33-5-3.46A5.62 5.62 0 010 4.7v7.98c0 .88.72 1.6 1.6 1.6h14.8c.88 0 1.6-.72 1.6-1.6V4.7zm0-2.95c0-.88-.73-1.6-1.6-1.6H1.6C.54.14 0 .98 0 1.96 0 2.9 1.01 4.02 1.73 4.5 3.28 5.6 4.86 6.67 6.42 7.77c.65.45 1.76 1.37 2.57 1.37h.02c.81 0 1.92-.92 2.57-1.37 1.56-1.1 3.14-2.18 4.7-3.27C17.17 3.9 18 2.87 18 1.75z" fill="#000"/></svg>